HIERARCHY
ROOT Hips
{
	OFFSET 0.000000 0.000000 0.000000
	CHANNELS 6 Xposition Yposition Zposition Zrotation Yrotation Xrotation 
	JOINT LHipJoint
	{
		OFFSET 0.000000 0.000000 0.000000
		CHANNELS 3 Zrotation Yrotation Xrotation
		JOINT LeftUpLeg
		{
			OFFSET 1.363060 -1.794630 0.839290
			CHANNELS 3 Zrotation Yrotation Xrotation
			JOINT LeftLeg
			{
				OFFSET 2.448110 -6.726130 0.000000
				CHANNELS 3 Zrotation Yrotation Xrotation
				JOINT LeftFoot
				{
					OFFSET 2.562200 -7.039590 0.000000
					CHANNELS 3 Zrotation Yrotation Xrotation
					JOINT LeftToeBase
					{
						OFFSET 0.157640 -0.433110 2.322550
						CHANNELS 3 Zrotation Yrotation Xrotation
						End Site
						{
							OFFSET 0.000000 0.000000 0.000000
						}
					}
				}
			}
		}
	}
	JOINT RHipJoint
	{
		OFFSET 0.000000 0.000000 0.000000
		CHANNELS 3 Zrotation Yrotation Xrotation
		JOINT RightUpLeg
		{
			OFFSET -1.305520 -1.794630 0.839290
			CHANNELS 3 Zrotation Yrotation Xrotation
			JOINT RightLeg
			{
				OFFSET -2.542530 -6.985550 0.000000
				CHANNELS 3 Zrotation Yrotation Xrotation
				JOINT RightFoot
				{
					OFFSET -2.568260 -7.056230 0.000000
					CHANNELS 3 Zrotation Yrotation Xrotation
					JOINT RightToeBase
					{
						OFFSET -0.164730 -0.452590 2.363150
						CHANNELS 3 Zrotation Yrotation Xrotation
						End Site
						{
							OFFSET 0.000000 0.000000 0.000000
						}
					}
				}
			}
		}
	}
	JOINT LowerBack
	{
		OFFSET 0.000000 0.000000 0.000000
		CHANNELS 3 Zrotation Yrotation Xrotation
		JOINT Spine
		{
			OFFSET 0.028270 2.035590 -0.193380
			CHANNELS 3 Zrotation Yrotation Xrotation
			JOINT Spine1
			{
				OFFSET 0.056720 2.048850 -0.042750
				CHANNELS 3 Zrotation Yrotation Xrotation
				JOINT Neck
				{
					OFFSET 0.000000 0.000000 0.000000
					CHANNELS 3 Zrotation Yrotation Xrotation
					JOINT Neck1
					{
						OFFSET -0.054170 1.746240 0.172020
						CHANNELS 3 Zrotation Yrotation Xrotation
						JOINT Head
						{
							OFFSET 0.104070 1.761360 -0.123970
							CHANNELS 3 Zrotation Yrotation Xrotation
							End Site
							{
								OFFSET 0.000000 0.000000 0.000000
							}
						}
					}
				}
				JOINT LeftShoulder
				{
					OFFSET 0.000000 0.000000 0.000000
					CHANNELS 3 Zrotation Yrotation Xrotation
					JOINT LeftArm
					{
						OFFSET 3.362410 1.200890 -0.311210
						CHANNELS 3 Zrotation Yrotation Xrotation
						JOINT LeftForeArm
						{
							OFFSET 4.983000 -0.000000 -0.000000
							CHANNELS 3 Zrotation Yrotation Xrotation
							JOINT LeftHand
							{
								OFFSET 3.483560 -0.000000 -0.000000
								CHANNELS 3 Zrotation Yrotation Xrotation
								JOINT LeftFingerBase
								{
									OFFSET 0.000000 0.000000 0.000000
									CHANNELS 3 Zrotation Yrotation Xrotation
									JOINT LeftHandIndex1
									{
										OFFSET 0.715260 -0.000000 -0.000000
										CHANNELS 3 Zrotation Yrotation Xrotation
										End Site
										{
											OFFSET 0.000000 0.000000 0.000000
										}
									}
								}
								JOINT LThumb
								{
									OFFSET 0.000000 0.000000 0.000000
									CHANNELS 3 Zrotation Yrotation Xrotation
									End Site
									{
										OFFSET 0.000000 0.000000 0.000000
									}
								}
							}
						}
					}
				}
				JOINT RightShoulder
				{
					OFFSET 0.000000 0.000000 0.000000
					CHANNELS 3 Zrotation Yrotation Xrotation
					JOINT RightArm
					{
						OFFSET -3.136600 1.374050 -0.404650
						CHANNELS 3 Zrotation Yrotation Xrotation
						JOINT RightForeArm
						{
							OFFSET -5.241900 -0.000000 -0.000000
							CHANNELS 3 Zrotation Yrotation Xrotation
							JOINT RightHand
							{
								OFFSET -3.444170 -0.000000 -0.000000
								CHANNELS 3 Zrotation Yrotation Xrotation
								JOINT RightFingerBase
								{
									OFFSET 0.000000 0.000000 0.000000
									CHANNELS 3 Zrotation Yrotation Xrotation
									JOINT RightHandIndex1
									{
										OFFSET -0.622530 -0.000000 -0.000000
										CHANNELS 3 Zrotation Yrotation Xrotation
										End Site
										{
											OFFSET 0.000000 0.000000 0.000000
										}
									}
								}
								JOINT RThumb
								{
									OFFSET 0.000000 0.000000 0.000000
									CHANNELS 3 Zrotation Yrotation Xrotation
									End Site
									{
										OFFSET 0.000000 0.000000 0.000000
									}
								}
							}
						}
					}
				}
			}
		}
	}
}
MOTION
Frames: 10
Frame Time: 0.008333
-2.501760 16.851166 -0.119460 -139.764070 87.614750 -102.309014 -13.681337 2.481059 -1.522703 -2.314390 2.987027 -4.462876 -0.309168 0.460897 12.295258 1.431680 10.374301 13.116074 3.288301 0.000000 -35.943301 5.771765 -0.870771 4.451645 11.655741 10.952274 -64.649923 4.288598 0.096068 13.140853 -0.783409 -4.815986 4.717809 -2.584100 -0.000000 -52.688700 8.754936 -5.488805 0.590821 2.095468 -5.937118 -2.719888 -3.506276 -6.025724 1.293558 3.221435 -18.722697 -5.653876 -1.696935 -0.144692 0.298908 0.000000 0.000000 0.000000 7.239378 4.191513 -1.373759 -63.198446 -16.832290 8.426340 -178.502173 -67.308888 179.946811 6.156189 -3.234978 -0.216205 -0.245072 0.700377 0.000000 0.000000 0.000000 0.000000 0.000000 0.000000 0.000000 -2.008018 -17.506834 0.387328 60.029684 -24.838522 18.748123 179.957047 88.217496 -179.996195 1.656483 11.210215 0.171030 -0.032078 -0.317784 -0.000000 0.000000 0.000000 0.000000 0.000000 0.000000 0.000000 
-2.163734 16.772700 -0.096496 -133.776846 87.838631 -97.044941 -13.623537 2.642069 -1.590979 -2.523166 3.295717 -3.389048 -0.223880 0.546795 14.543363 1.550614 11.344883 12.276006 3.471800 0.000000 -34.118000 5.792949 -1.049388 4.213022 12.820345 10.596844 -64.288455 4.267626 -0.235727 14.974443 -0.823404 -4.825700 4.351065 -2.526400 0.000000 -50.973700 8.935762 -5.565298 0.804494 2.099152 -6.006148 -2.712507 -3.699414 -6.082623 1.142279 3.725743 -18.619040 -5.717004 -1.787353 -0.150557 0.289568 0.000000 0.000000 0.000000 6.823966 3.752896 -1.182712 -64.041088 -13.991700 9.574117 -178.643310 -69.577718 179.954995 5.568540 -2.987604 -0.180894 -0.222225 0.662324 0.000000 0.000000 0.000000 0.000000 0.000000 0.000000 0.000000 -1.082351 -17.303754 0.319163 60.286340 -24.094210 17.838939 179.930501 87.628397 -179.994832 1.934110 11.227018 0.199732 -0.034212 -0.326104 -0.000000 0.000000 0.000000 0.000000 0.000000 0.000000 0.000000 
-1.826546 16.683443 -0.071941 -126.339444 88.005137 -90.342883 -13.524301 2.789139 -1.661024 -2.743894 3.702897 -2.594602 -0.142357 0.650263 17.331232 1.662639 12.175938 11.348145 3.567500 -0.000001 -32.935501 5.852489 -1.220300 3.987255 13.757659 10.318383 -64.124217 4.150176 -0.680758 17.707893 -0.889623 -4.757364 3.439434 -2.372300 -0.000000 -48.946000 9.128756 -5.613446 0.985374 2.094568 -6.046026 -2.706568 -3.932332 -6.108694 0.988219 4.278588 -18.432419 -5.762826 -1.890282 -0.157604 0.286469 0.000000 0.000000 0.000000 6.304096 3.294576 -0.980239 -64.844103 -11.186659 10.567505 -178.824037 -72.214798 179.962019 5.057684 -2.713305 -0.149610 -0.201617 0.621044 -0.000000 0.000000 0.000000 0.000000 0.000000 0.000000 0.000000 -0.024691 -17.038795 0.248362 60.599906 -23.283747 16.894462 179.909509 87.256920 -179.993463 2.148618 11.215789 0.221441 -0.034762 -0.333148 -0.000000 0.000000 0.000000 0.000000 0.000000 0.000000 0.000000 
-1.491055 16.584691 -0.045980 -117.520260 88.084798 -82.265429 -13.391115 2.927296 -1.740110 -2.933278 4.266523 -2.128864 -0.067363 0.778211 20.666944 1.763761 12.836862 10.368033 3.571799 -0.000000 -32.191300 5.958287 -1.354018 3.776334 14.464947 10.119699 -64.121795 3.941893 -1.205078 21.209555 -0.981372 -4.638118 2.002843 -2.133100 0.000001 -46.533700 9.350113 -5.631488 1.137568 2.085505 -6.056230 -2.700962 -4.201526 -6.104518 0.836629 4.864969 -18.161874 -5.793589 -2.004858 -0.165727 0.288650 0.000000 0.000000 0.000000 5.698315 2.825595 -0.769471 -65.606436 -8.423796 11.386235 -179.042354 -75.197033 179.967528 4.671343 -2.426202 -0.124039 -0.184518 0.577517 -0.000000 0.000000 0.000000 0.000000 0.000000 0.000000 0.000000 1.142094 -16.715621 0.175826 60.992141 -22.373127 15.916380 179.896881 87.150476 -179.992159 2.284826 11.164513 0.234154 -0.033426 -0.338527 -0.000000 0.000000 0.000000 0.000000 0.000000 0.000000 0.000000 
-1.158262 16.478515 -0.018883 -107.648102 88.067595 -73.137105 -13.234602 3.064079 -1.827483 -3.078047 4.963769 -1.982091 0.004444 0.936034 24.478353 1.860661 13.397739 9.401699 3.523700 0.000001 -31.787300 6.113115 -1.421398 3.572700 14.963461 9.984693 -64.218307 3.658989 -1.765577 25.296470 -1.092009 -4.484379 0.095550 -1.822800 0.000000 -43.733200 9.595271 -5.617289 1.271897 2.070425 -6.035244 -2.692164 -4.502937 -6.069341 0.696597 5.474940 -17.813257 -5.815484 -2.130338 -0.174762 0.293800 0.000000 0.000000 0.000000 5.025723 2.378345 -0.552197 -66.327607 -5.737207 12.034422 -179.293045 -78.518339 179.971411 4.445148 -2.145735 -0.104869 -0.171599 0.532697 -0.000000 0.000000 0.000000 0.000000 0.000000 0.000000 0.000000 2.405239 -16.344505 0.099205 61.468484 -21.310159 14.929682 179.895515 87.345364 -179.991011 2.326200 11.072892 0.236173 -0.029943 -0.342135 -0.000000 0.000000 0.000000 0.000000 0.000000 0.000000 0.000000 
-0.829183 16.367640 0.008781 -97.348027 87.950797 -63.573696 -13.078501 3.202744 -1.923853 -3.167816 5.767732 -2.141074 0.076511 1.127536 28.681230 1.960946 13.937954 8.501339 3.462000 -0.000001 -31.598900 6.306003 -1.411891 3.374151 15.297215 9.901495 -64.337210 3.327767 -2.314275 29.732742 -1.214587 -4.319390 -2.193609 -1.463000 0.000001 -40.615700 9.852073 -5.570707 1.397874 2.046151 -5.983347 -2.678187 -4.830885 -6.004168 0.575220 6.100188 -17.390091 -5.833322 -2.267171 -0.184659 0.299952 0.000000 0.000000 0.000000 4.310205 1.983024 -0.329444 -67.012085 -3.157964 12.521247 -179.568140 -82.169007 179.973815 4.395453 -1.881779 -0.091399 -0.162723 0.487197 -0.000000 0.000000 0.000000 0.000000 0.000000 0.000000 0.000000 3.757213 -15.931736 0.015657 62.017651 -20.042772 13.974795 179.907626 87.856473 -179.990099 2.264969 10.944637 0.226999 -0.024294 -0.344062 -0.000000 0.000000 0.000000 0.000000 0.000000 0.000000 0.000000 
-0.504809 16.255384 0.036235 -87.455065 87.740483 -54.398732 -12.952149 3.339125 -2.031221 -3.197204 6.645914 -2.585380 0.154733 1.352776 33.180023 2.072433 14.538416 7.707885 3.421700 -0.000000 -31.516999 6.514270 -1.339038 3.182488 15.527674 9.858764 -64.404135 2.980207 -2.811453 34.268639 -1.342517 -4.160818 -4.757725 -1.076000 0.000000 -37.348200 10.105477 -5.495930 1.523605 2.009905 -5.904744 -2.657561 -5.177497 -5.913722 0.480647 6.734178 -16.899310 -5.852620 -2.415577 -0.195336 0.304867 0.000000 0.000000 0.000000 3.576670 1.677244 -0.101388 -67.669294 -0.733736 12.871894 -179.858593 -86.155094 179.975070 4.518739 -1.641969 -0.082428 -0.157225 0.441472 -0.000000 0.000000 0.000000 0.000000 0.000000 0.000000 0.000000 5.192754 -15.486702 -0.078826 62.613468 -18.519010 13.112724 179.934553 88.678344 -179.989498 2.100387 10.794706 0.207230 -0.016731 -0.344658 -0.000000 0.000000 0.000000 0.000000 0.000000 0.000000 0.000000 
-0.186005 16.145395 0.062617 -78.771790 87.449914 -46.403870 -12.879145 3.461189 -2.152357 -3.161592 7.567363 -3.293342 0.247685 1.607016 37.881139 2.201478 15.263827 7.044816 3.428500 -0.000000 -31.435500 6.712346 -1.234670 3.001403 15.722749 9.844065 -64.359086 2.647227 -3.234938 38.681656 -1.471031 -4.016919 -7.489286 -0.680600 0.000000 -34.150400 10.346915 -5.401512 1.655291 1.961903 -5.807713 -2.630088 -5.533214 -5.806769 0.417739 7.370292 -16.343256 -5.875308 -2.576099 -0.206789 0.307380 0.000000 0.000000 0.000000 2.852700 1.487317 0.132316 -68.310818 1.493714 13.112651 -0.154832 -89.520762 -0.024335 4.789187 -1.426709 -0.076260 -0.153943 0.395809 -0.000000 0.000000 0.000000 0.000000 0.000000 0.000000 0.000000 6.705448 -15.011865 -0.187417 63.221845 -16.705028 12.413855 179.976102 89.779575 -179.989264 1.842291 10.642712 0.178765 -0.007820 -0.344415 -0.000000 0.000000 0.000000 0.000000 0.000000 0.000000 0.000000 
0.126558 16.041332 0.087115 -71.791137 87.093532 -40.073010 -12.868190 3.553339 -2.288858 -3.057871 8.501410 -4.243284 0.364283 1.881881 42.696367 2.352453 16.155261 6.521469 3.498100 -0.000000 -31.282800 6.882385 -1.134366 2.833748 15.945662 9.844036 -64.160386 2.353472 -3.580489 42.796437 -1.597150 -3.887715 -10.284740 -0.291100 0.000000 -31.259699 10.579958 -5.297092 1.797212 1.906120 -5.701582 -2.596894 -5.888610 -5.693151 0.385658 8.001428 -15.716789 -5.897018 -2.749644 -0.219124 0.308261 0.000000 0.000000 0.000000 2.163201 1.417107 0.372673 -68.946841 3.503321 13.264359 -0.447021 -84.869565 -0.023885 5.160436 -1.217495 -0.070497 -0.151354 0.350203 0.000000 0.000000 0.000000 0.000000 0.000000 0.000000 0.000000 8.286132 -14.498135 -0.311045 63.806921 -14.597624 11.950090 0.030088 88.899182 0.010579 1.508624 10.504558 0.143901 0.001683 -0.343839 -0.000000 0.000000 0.000000 0.000000 0.000000 0.000000 0.000000 
0.432327 15.946543 0.109229 -66.577051 86.678793 -35.464276 -12.912889 3.603094 -2.441096 -2.887584 9.421461 -5.414990 0.509283 2.169135 47.545547 2.526678 17.223302 6.131496 3.636300 -0.000000 -31.011200 7.018947 -1.063594 2.679290 16.244839 9.845914 -63.780101 2.114319 -3.855210 46.489262 -1.718420 -3.766731 -13.045314 0.081100 0.000000 -28.904500 10.814644 -5.188174 1.953896 1.848430 -5.591437 -2.558300 -6.233368 -5.578230 0.383370 8.618453 -15.017670 -5.912168 -2.934962 -0.232295 0.308719 0.000000 0.000000 0.000000 1.533880 1.469809 0.619488 -69.586985 5.274304 13.358033 -0.726123 -79.908501 -0.023072 5.565383 -1.009721 -0.063643 -0.147867 0.305052 0.000000 0.000000 0.000000 0.000000 0.000000 0.000000 0.000000 9.913464 -13.933796 -0.448517 64.344109 -12.211598 11.795915 0.092725 87.432764 0.010044 1.122284 10.399269 0.105336 0.010982 -0.343513 -0.000000 0.000000 0.000000 0.000000 0.000000 0.000000 0.000000 
